<svg width="30" height="25" viewBox="0 0 30 25" fill="none" xmlns="http://www.w3.org/2000/svg">
<path d="M10.9609 15.6145H12.6015V24.6736H10.9609V15.6145Z" fill="#C9C9C9"/>
<path d="M14.1826 15.6145H15.8232V24.6736H14.1826V15.6145Z" fill="#C9C9C9"/>
<path d="M17.4043 15.6145H19.0448V24.6736H17.4043V15.6145Z" fill="#C9C9C9"/>
<path fill-rule="evenodd" clip-rule="evenodd" d="M20.6047 6.41431L23.9067 10.9274H21.3346C21.2245 12.5877 20.5671 14.1053 19.5448 15.2448V15.1145H17.3974C18.7276 14.2731 19.6828 12.7494 19.831 10.9274H17.3027L20.6047 6.41431ZM16.9043 15.3867C16.716 15.4762 16.5219 15.5529 16.3232 15.6157V17.1724C16.5207 17.1273 16.7145 17.0724 16.9043 17.0081V15.3867ZM19.0448 15.7457C18.556 16.1853 18.0042 16.5474 17.4043 16.8131V15.6145H19.0448V15.7457ZM15.0029 17.3202C15.2815 17.3202 15.5552 17.301 15.8232 17.2638V15.7423C15.5555 15.7935 15.2814 15.8202 15.0029 15.8202C14.7244 15.8202 14.4502 15.7935 14.1826 15.7423V17.2638C14.4506 17.301 14.7244 17.3202 15.0029 17.3202ZM13.6826 17.1723V15.6157C13.4838 15.5529 13.2898 15.4762 13.1015 15.3866V17.0081C13.2913 17.0724 13.4851 17.1273 13.6826 17.1723ZM12.6085 15.1145C11.159 14.1977 10.1548 12.4706 10.1548 10.4303C10.1548 9.85443 10.2359 9.3013 10.3853 8.78345L8.94415 8.36755C8.75585 9.02008 8.65479 9.71319 8.65479 10.4303C8.65479 12.2835 9.33752 13.9924 10.4609 15.2447V15.1145H12.6085ZM12.6015 16.8131C12.0015 16.5474 11.4498 16.1852 10.9609 15.7456V15.6145H12.6015V16.8131Z" fill="#C9C9C9"/>
<path d="M17.9736 6.41431V1.41431H23.9736V6.41431H28.9736V1.41431" stroke="#C9C9C9" stroke-width="1.5" stroke-linecap="square"/>
<path d="M12.0317 6.41431V1.41431H6.03174V6.41431H1.03174V1.41431" stroke="#C9C9C9" stroke-width="1.5" stroke-linecap="square"/>
</svg>
