<svg width="30" height="25" viewBox="0 0 30 25" fill="none" xmlns="http://www.w3.org/2000/svg">
<path d="M10.9609 15.6145H12.6015V24.6736H10.9609V15.6145Z" fill="#C9C9C9"/>
<path d="M14.1826 15.6145H15.8232V24.6736H14.1826V15.6145Z" fill="#C9C9C9"/>
<path d="M17.4043 15.6145H19.0448V24.6736H17.4043V15.6145Z" fill="#C9C9C9"/>
<path fill-rule="evenodd" clip-rule="evenodd" d="M20.6042 6.41431L23.9062 10.9274H21.3341C21.224 12.5877 20.5666 14.1053 19.5443 15.2448V15.1145H17.3969C18.7271 14.2731 19.6823 12.7494 19.8305 10.9274H17.3022L20.6042 6.41431ZM16.9038 15.3867C16.7155 15.4762 16.5214 15.5529 16.3227 15.6157V17.1724C16.5202 17.1273 16.714 17.0724 16.9038 17.0081V15.3867ZM19.0443 15.7457C18.5555 16.1853 18.0037 16.5474 17.4038 16.8131V15.6145H19.0443V15.7457ZM15.0024 17.3202C15.281 17.3202 15.5547 17.301 15.8227 17.2638V15.7423C15.5551 15.7935 15.2809 15.8202 15.0024 15.8202C14.7239 15.8202 14.4498 15.7935 14.1821 15.7423V17.2638C14.4501 17.301 14.7239 17.3202 15.0024 17.3202ZM13.6821 17.1723V15.6157C13.4834 15.5529 13.2893 15.4762 13.101 15.3866V17.0081C13.2908 17.0724 13.4846 17.1273 13.6821 17.1723ZM12.608 15.1145C11.1585 14.1977 10.1543 12.4706 10.1543 10.4303C10.1543 9.85443 10.2354 9.3013 10.3849 8.78345L8.94366 8.36755C8.75536 9.02008 8.6543 9.71319 8.6543 10.4303C8.6543 12.2835 9.33703 13.9924 10.4604 15.2447V15.1145H12.608ZM12.601 16.8131C12.001 16.5474 11.4493 16.1852 10.9604 15.7456V15.6145H12.601V16.8131Z" fill="#C9C9C9"/>
<path d="M17.9736 6.41431V1.41431H23.9736V6.41431H28.9736V1.41431" stroke="#C9C9C9" stroke-width="1.5" stroke-linecap="square"/>
<path d="M12.0312 6.41431V1.41431H6.03125V6.41431H1.03125V1.41431" stroke="#C9C9C9" stroke-width="1.5" stroke-linecap="square"/>
</svg>
