<svg width="22" height="22" viewBox="0 0 22 22" fill="none" xmlns="http://www.w3.org/2000/svg">
<path d="M20.8002 1.19982C20.0265 0.426121 18.9978 4.29688e-05 17.9036 8.59375e-05L4.09638 0C1.8376 8.59375e-05 0 1.83773 0 4.09634V17.9036C0 20.1624 1.83769 22 4.09638 22H17.9036C20.1624 22 22 20.1624 22 17.9036V4.09643C22 3.00223 21.5739 1.97351 20.8002 1.19982Z" fill="#C9C9C9"/>
<path d="M17.8582 18.0391H18.1082L18.1082 17.7891V17.7891V17.7889V17.7885V17.7866L18.1082 17.779L18.1082 17.7492L18.1083 17.6347L18.1082 17.2133V17.2133V17.2112V17.2091V17.2071V17.205V17.2029V17.2008V17.1987V17.1966V17.1945V17.1925V17.1904V17.1883V17.1862V17.1841V17.182V17.18V17.1779V17.1758V17.1737V17.1716V17.1695V17.1675V17.1654V17.1633V17.1612V17.1591V17.157V17.155V17.1529V17.1508V17.1487V17.1466V17.1446V17.1425V17.1404V17.1383V17.1363V17.1342V17.1321V17.13V17.128V17.1259V17.1238V17.1217V17.1197V17.1176V17.1155V17.1135V17.1114V17.1093V17.1073V17.1052V17.1031V17.1011V17.099V17.0969V17.0949V17.0928V17.0908V17.0887V17.0866V17.0846V17.0825V17.0805V17.0784V17.0764V17.0743V17.0723V17.0702V17.0682V17.0661V17.0641V17.062V17.06V17.0579V17.0559V17.0538V17.0518V17.0498V17.0477V17.0457V17.0437V17.0416V17.0396V17.0376V17.0355V17.0335V17.0315V17.0295V17.0274V17.0254V17.0234V17.0214V17.0193V17.0173V17.0153V17.0133V17.0113V17.0093V17.0073V17.0053V17.0032V17.0012V16.9992V16.9972V16.9952V16.9932V16.9912V16.9893V16.9873V16.9853V16.9833V16.9813V16.9793V16.9773V16.9753V16.9734V16.9714V16.9694V16.9674V16.9655V16.9635V16.9615V16.9595V16.9576V16.9556V16.9537V16.9517V16.9497V16.9478V16.9458V16.9439V16.9419V16.94V16.938V16.9361V16.9342V16.9322V16.9303V16.9283V16.9264V16.9245V16.9226V16.9206V16.9187V16.9168V16.9149V16.913V16.911V16.9091V16.9072V16.9053V16.9034V16.9015V16.8996V16.8977V16.8958V16.8939V16.892V16.8901V16.8883V16.8864V16.8845V16.8826V16.8808V16.8789V16.877V16.8751V16.8733V16.8714V16.8696V16.8677V16.8659V16.864V16.8622V16.8603V16.8585V16.8566V16.8548V16.853V16.8511V16.8493V16.8475V16.8457V16.8438V16.842V16.8402V16.8384V16.8366V16.8348V16.833V16.8312V16.8294V16.8276V16.8258V16.824V16.8223V16.8205V16.8187V16.8169V16.8152V16.8134V16.8116V16.8099V16.8081V16.8064V16.8046V16.8029V16.8011V16.7994V16.7976V16.7959V16.7942V16.7924V16.7907V16.789V16.7873V16.7856V16.7839V16.7822V16.7805V16.7788V16.7771V16.7754V16.7737V16.772V16.7703V16.7686V16.767V16.7653V16.7636V16.762V16.7603V16.7586V16.757V16.7553V16.7537V16.7521V16.7504V16.7488V16.7472V16.7455V16.7439V16.7423V16.7407V16.7391V16.7375V16.7359V16.7343V16.7327V16.7311V16.7295V16.7279V16.7263V16.7247V16.7232V16.7216V16.72V16.7185V16.7169V16.7154V16.7138V16.7123V16.7108V16.7092V16.7077V16.7062V16.7047V16.7031V16.7016V16.7001V16.6986V16.6971V16.6956V16.6941V16.6926V16.6912V16.6897V16.6882V16.6867V16.6853V16.6838V16.6824V16.6809V16.6795V16.678V16.6766V16.6752V16.6737V16.6723V16.6709V16.6695V16.6681V16.6667V16.6653V16.6639V16.6625V16.6611V16.6597V16.6583V16.657V16.6556V16.6542V16.6529V16.6515V16.6502V16.6488V16.6475V16.6462V16.6448V16.6435V16.6422V16.6409V16.6396V16.6383V16.637V16.6357V16.6344V16.6331V16.6318V16.6306V16.6293V16.628V16.6268V16.6255V16.6243V16.623V16.6218V16.6206V16.6194V16.6181V16.6169V16.6157V16.6145V16.6133V16.6121V16.6109V16.6097V16.6086V16.6074V16.6062V16.6051V16.6039V16.6028V16.6016V16.6005V16.5993V16.5982V16.5971V16.596V16.5949V16.5937V16.5926V16.5916V16.5905V16.5894V16.5883V16.5872V16.5862V16.5851V16.584V16.583V16.582V16.5809V16.5799V16.5789V16.5778V16.5768V16.5758V16.5748V16.5738V16.5728V16.5718V16.5709V16.5699V16.5689V16.568V16.567V16.5661V16.5651V16.5642V16.5632V16.5623V16.5614V16.5605V16.5596V16.5587V16.5578V16.5569V16.556V16.5551V16.5543V16.5534V16.5526V16.5517V16.5509V16.55V16.5492V16.5484V16.5475V16.5467V16.5459V16.5451V16.5443V16.5435V16.5428V16.542V16.5412V16.5405V16.5397V16.539V16.5382V16.5375V16.5368V16.536V16.5353V16.5346V16.5339V16.5332V16.5325V16.5319V16.5312V16.5305V16.5298V16.5292V16.5285V16.5279V16.5273V16.5266V16.526V16.5254V16.5248V16.5242V16.5236V16.523V16.5224V16.5219V16.5213V16.5208V16.5202V16.5197V16.5191V16.5186V16.5181V16.5176V16.517V16.5165V16.5161V16.5156V16.5151V16.5146V16.5141V16.5137V16.5132V16.5128V16.5124V16.5119V16.5115V16.5111V16.5107V16.5103V16.5099V16.5095V16.5091V16.5088V16.5084V16.508V16.5077V16.5073V16.507V16.5067V16.5064V16.5061V16.5058V16.5055V16.5052V16.5049V16.5046V16.5044V16.5041V16.5039V16.5036V16.5034V16.5031V16.5029V16.5027V16.5025V16.5023V16.5021V16.502V16.5018V16.5016V16.5015V16.5013V16.5012V16.501V16.5009V16.5008V16.5007V16.5006V16.5005V16.5004V16.5003V16.5003V16.5002V16.5001V16.5001V16.5001V16.5V16.5V16.5V16.25H17.8582H4.14262H3.89294L3.89262 16.4997L3.89258 17.2133L3.8926 17.6347L3.89262 17.7492L3.89262 17.779L3.89262 17.7866L3.89262 17.7885L3.89262 17.789L3.89262 17.7891V17.7891L3.89267 18.0391H4.14262H17.8582ZM7.12748 9.75009L6.52284 9.7501L6.95094 10.1771L10.8238 14.0399L11.0003 14.216L11.1769 14.0399L15.0498 10.177L15.4779 9.75003L14.8733 9.75L11.8949 9.74984L11.8949 4.14209V3.89201L11.6448 3.89209H11.6448L11.6448 3.89209L11.6446 3.89209L11.644 3.89209L11.6415 3.89209L11.6317 3.89209L11.5942 3.8921L11.4561 3.89214L11.0003 3.89218L10.5446 3.89214L10.4066 3.8921L10.369 3.89209L10.3593 3.89209L10.3568 3.89209L10.3561 3.89209L10.356 3.89209L10.356 3.89209H10.3559L10.1059 3.89201V4.14209V9.75001L7.12748 9.75009Z" fill="#646464" stroke="#646464" stroke-width="0.5"/>
</svg>
