<svg width="22" height="22" viewBox="0 0 22 22" fill="none" xmlns="http://www.w3.org/2000/svg">
<path fill-rule="evenodd" clip-rule="evenodd" d="M17.9036 8.59375e-05C18.9978 4.29687e-05 20.0265 0.426121 20.8002 1.19982C21.5739 1.97351 22 3.00223 22 4.09643V17.9036C22 20.1624 20.1624 22 17.9036 22H4.09638C1.83769 22 0 20.1624 0 17.9036V4.09634C0 1.83773 1.8376 8.59375e-05 4.09638 0L17.9036 8.59375e-05ZM18.1077 18.0391H3.89214L3.89209 16.4997L3.89241 16.25H18.1077L18.1077 18.0391ZM5.91766 9.50016L9.85533 9.50005V3.64197H12.1444L12.1444 9.4999L16.082 9.5001L10.9998 14.5692L5.91766 9.50016ZM7.12704 10.0001L10.9999 13.8629L10.9998 13.863L7.12695 10.0001H7.12704ZM10.3553 4.14213V10H10.3554V4.14213H10.3553ZM11.3705 4.14213H10.6292L10.9998 4.14218L11.3705 4.14213ZM4.14209 17.2133V16.5H4.14213L4.14209 17.2133ZM4.14209 17.7891V17.2133L4.14213 17.7891H17.8577V17.7891H4.14209Z" fill="#C9C9C9"/>
</svg>
