<svg width="26" height="20" viewBox="0 0 26 20" fill="none" xmlns="http://www.w3.org/2000/svg">
<path d="M0.21449 19.4388C0.456279 19.7888 0.86316 20 1.29994 20H20.799C21.319 20 21.7896 19.7025 21.9937 19.2425L25.8935 10.4925C25.9789 10.3024 26.0138 10.0949 25.995 9.88858C25.9762 9.68229 25.9043 9.48375 25.7858 9.31086C25.6673 9.13797 25.5058 8.99617 25.3161 8.89826C25.1263 8.80034 24.9142 8.74939 24.6989 8.75H23.3989V5C23.3989 3.62125 22.2329 2.5 20.799 2.5H12.1479L8.82529 0H2.59988C1.16605 0 0 1.12125 0 2.5V18.75H0.00909954C0.00620212 18.9939 0.0775992 19.2334 0.21449 19.4388ZM20.799 5V8.75H5.19976C4.67978 8.75 4.2092 9.0475 4.00511 9.5075L2.59988 12.6612V5H20.799Z" fill="#C9C9C9"/>
</svg>
