<svg width="22" height="22" viewBox="0 0 22 22" fill="none" xmlns="http://www.w3.org/2000/svg">
<path d="M17.1111 0H2.44446C1.09387 0 0 1.09387 0 2.44446V19.5556C0 20.9061 1.09387 22 2.44446 22H19.5556C20.9061 22 22 20.9061 22 19.5555V4.88887L17.1111 0ZM11 19.5555C8.9772 19.5555 7.33333 17.9117 7.33333 15.8889C7.33333 13.8661 8.9772 12.2222 11 12.2222C13.0228 12.2222 14.6667 13.8661 14.6667 15.8889C14.6667 17.9117 13.0228 19.5555 11 19.5555ZM15.2222 7H3V2.11113H15.2222V7Z" fill="#C9C9C9"/>
</svg>
