<svg width="22" height="31" viewBox="0 0 22 31" fill="none" xmlns="http://www.w3.org/2000/svg">
<path d="M5.26367 28H3.8457V21.1504L1.75391 21.8652V20.6641L5.08203 19.4395H5.26367V28ZM13.9648 28H8.22852V27.0215L11.0703 23.9219C11.4805 23.4648 11.7715 23.084 11.9434 22.7793C12.1191 22.4707 12.207 22.1621 12.207 21.8535C12.207 21.4473 12.0918 21.1191 11.8613 20.8691C11.6348 20.6191 11.3281 20.4941 10.9414 20.4941C10.4805 20.4941 10.123 20.6348 9.86914 20.916C9.61523 21.1973 9.48828 21.582 9.48828 22.0703H8.06445C8.06445 21.5508 8.18164 21.084 8.41602 20.6699C8.6543 20.252 8.99219 19.9277 9.42969 19.6973C9.87109 19.4668 10.3789 19.3516 10.9531 19.3516C11.7812 19.3516 12.4336 19.5605 12.9102 19.9785C13.3906 20.3926 13.6309 20.9668 13.6309 21.7012C13.6309 22.127 13.5098 22.5742 13.2676 23.043C13.0293 23.5078 12.6367 24.0371 12.0898 24.6309L10.0039 26.8633H13.9648V28ZM16.6953 23.084H17.5625C18 23.0801 18.3457 22.9668 18.5996 22.7441C18.8574 22.5215 18.9863 22.1992 18.9863 21.7773C18.9863 21.3711 18.8789 21.0566 18.6641 20.834C18.4531 20.6074 18.1289 20.4941 17.6914 20.4941C17.3086 20.4941 16.9941 20.6055 16.748 20.8281C16.502 21.0469 16.3789 21.334 16.3789 21.6895H14.9551C14.9551 21.252 15.0703 20.8535 15.3008 20.4941C15.5352 20.1348 15.8594 19.8555 16.2734 19.6562C16.6914 19.4531 17.1582 19.3516 17.6738 19.3516C18.5254 19.3516 19.1934 19.5664 19.6777 19.9961C20.166 20.4219 20.4102 21.0156 20.4102 21.7773C20.4102 22.1602 20.2871 22.5215 20.041 22.8613C19.7988 23.1973 19.4844 23.4512 19.0977 23.623C19.5664 23.7832 19.9219 24.0352 20.1641 24.3789C20.4102 24.7227 20.5332 25.1328 20.5332 25.6094C20.5332 26.375 20.2695 26.9844 19.7422 27.4375C19.2188 27.8906 18.5293 28.1172 17.6738 28.1172C16.8535 28.1172 16.1816 27.8984 15.6582 27.4609C15.1348 27.0234 14.873 26.4414 14.873 25.7148H16.2969C16.2969 26.0898 16.4219 26.3945 16.6719 26.6289C16.9258 26.8633 17.2656 26.9805 17.6914 26.9805C18.1328 26.9805 18.4805 26.8633 18.7344 26.6289C18.9883 26.3945 19.1152 26.0547 19.1152 25.6094C19.1152 25.1602 18.9824 24.8145 18.7168 24.5723C18.4512 24.3301 18.0566 24.209 17.5332 24.209H16.6953V23.084Z" fill="#C9C9C9"/>
<path d="M15.5156 5.21875H11.9688V15H10.0078V5.21875H6.49219V3.625H15.5156V5.21875Z" fill="#C9C9C9"/>
</svg>
